<svg width="1920" height="264" viewBox="0 0 1920 264" fill="none" xmlns="http://www.w3.org/2000/svg">
<g clip-path="url(#clip0_1_2187)">
<path d="M1513.82 160.41C1513.39 159.92 1512.9 159.41 1512.38 158.9C1511.32 157.9 1510.11 156.84 1508.67 155.99C1507.21 155.18 1505.73 154.57 1504.34 154.12C1503.99 154.01 1503.65 153.91 1503.32 153.81C1502.98 153.74 1502.64 153.67 1502.31 153.61C1501.65 153.5 1501.04 153.41 1500.47 153.35C1498.19 153.11 1496.71 153.25 1496.71 153.25C1496.71 153.25 1497.6 154.52 1499.15 156.1C1499.54 156.5 1499.97 156.91 1500.44 157.33C1500.68 157.54 1500.92 157.75 1501.18 157.96C1501.43 158.19 1501.68 158.42 1501.94 158.65C1503 159.57 1504.21 160.46 1505.58 161.22C1506.93 162.01 1508.26 162.7 1509.58 163.18C1510.23 163.43 1510.87 163.64 1511.49 163.82C1512.09 164.02 1512.65 164.21 1513.19 164.36C1515.32 164.97 1516.84 165.14 1516.84 165.14C1516.84 165.14 1516.25 163.76 1514.95 161.87C1514.6 161.44 1514.24 160.93 1513.82 160.41Z" fill="#46B755"/>
<path d="M1518.24 169.21C1516.76 168.83 1515.15 168.55 1513.39 168.61C1511.65 168.64 1510.01 168.89 1508.54 169.26C1507.07 169.62 1505.71 170.19 1504.62 170.69C1502.41 171.72 1501.09 172.69 1501.09 172.69C1501.09 172.69 1502.31 173.28 1504.38 173.76C1505.4 174.03 1506.59 174.35 1507.98 174.54C1508.67 174.64 1509.41 174.72 1510.19 174.76C1510.97 174.8 1511.74 174.88 1512.58 174.87C1514.24 174.88 1515.89 174.73 1517.44 174.49C1518.99 174.25 1520.37 174.02 1521.59 173.73C1524.01 173.18 1525.62 172.58 1525.62 172.58C1525.62 172.58 1524.32 171.6 1522.17 170.54C1521.07 170.05 1519.71 169.59 1518.24 169.21Z" fill="#46B755"/>
<path d="M1536.03 184.53C1535.45 184.01 1534.63 183.26 1533.48 182.55C1532.35 181.82 1530.99 181.03 1529.46 180.35C1527.9 179.69 1526.09 179.19 1524.22 178.89C1522.36 178.58 1520.48 178.63 1518.78 178.82C1517.09 179.01 1515.56 179.35 1514.29 179.71C1513.03 180.06 1511.95 180.52 1511.22 180.83C1510.49 181.15 1510.09 181.37 1510.09 181.37C1510.09 181.37 1511.38 182.13 1513.47 183.09C1514.52 183.57 1515.86 184 1517.31 184.47C1518.76 184.94 1520.42 185.35 1522.27 185.6C1524.1 185.87 1525.87 186.03 1527.6 186.05C1529.3 186.09 1530.97 185.98 1532.31 185.91C1535.04 185.75 1536.9 185.4 1536.9 185.4C1536.9 185.4 1537.79 183.74 1538.58 180.99C1538.99 179.6 1539.28 178.01 1539.45 176.18C1539.6 174.37 1539.63 172.32 1539.3 170.22C1538.94 168.14 1538.33 166.16 1537.62 164.35C1536.91 162.54 1535.97 161.03 1535.16 159.71C1534.32 158.42 1533.59 157.34 1532.98 156.67C1532.39 155.99 1532.02 155.62 1532.02 155.62C1532.02 155.62 1531.93 156.1 1531.82 156.94C1531.71 157.79 1531.62 158.96 1531.51 160.44C1531.41 161.91 1531.37 163.63 1531.44 165.47C1531.51 167.31 1531.72 169.25 1532.02 171.31C1532.34 173.35 1532.86 175.19 1533.38 176.88C1533.87 178.59 1534.44 180.09 1534.98 181.34C1535.54 182.56 1535.98 183.61 1536.33 184.31C1536.68 185.01 1536.9 185.4 1536.9 185.4C1536.91 185.39 1536.61 185.06 1536.03 184.53Z" fill="#46B755"/>
<path d="M1543.68 197.8C1542.59 196.78 1541.25 195.65 1539.71 194.61C1538.09 193.61 1536.24 192.7 1534.25 192.03C1532.25 191.37 1530.15 191.11 1528.29 190.99C1526.41 190.89 1524.71 190.98 1523.2 191.21C1520.22 191.63 1518.31 192.31 1518.31 192.31C1518.31 192.31 1518.61 192.59 1519.19 193.02C1519.48 193.24 1519.84 193.49 1520.26 193.78C1520.7 194.05 1521.17 194.38 1521.69 194.73C1522.74 195.43 1524.05 196.18 1525.61 196.9C1527.1 197.66 1528.81 198.41 1530.78 199.02C1531.78 199.31 1532.72 199.61 1533.68 199.86C1534.64 200.11 1535.59 200.31 1536.53 200.49C1538.4 200.85 1540.22 201.06 1541.71 201.26C1544.74 201.62 1546.86 201.61 1546.86 201.61C1546.86 201.61 1548.17 199.98 1549.58 197.12C1550.31 195.67 1550.96 193.97 1551.49 191.99C1551.75 191 1551.98 189.95 1552.15 188.84C1552.32 187.73 1552.45 186.55 1552.44 185.38C1552.44 183.01 1552.15 180.67 1551.67 178.54C1551.13 176.45 1550.45 174.54 1549.77 172.93C1549.44 172.12 1549.1 171.39 1548.75 170.78C1548.41 170.16 1548.1 169.62 1547.84 169.18C1547.31 168.3 1546.97 167.82 1546.97 167.82C1546.97 167.82 1546.24 169.89 1545.58 173.07C1545.27 174.64 1544.89 176.55 1544.63 178.61C1544.35 180.68 1544.25 182.85 1544.22 185.16C1544.19 187.48 1544.38 189.63 1544.67 191.56C1544.88 193.54 1545.21 195.3 1545.56 196.77C1545.94 198.22 1546.18 199.47 1546.44 200.31C1546.68 201.15 1546.86 201.62 1546.86 201.62C1546.86 201.62 1546.59 201.2 1546.06 200.51C1545.52 199.8 1544.8 198.81 1543.68 197.8Z" fill="#46B755"/>
<path d="M1553.68 220.45C1553.23 219.56 1552.56 218.32 1551.64 216.91C1550.78 215.48 1549.42 213.97 1547.93 212.47C1546.47 210.96 1544.54 209.58 1542.45 208.43C1540.4 207.27 1538.13 206.55 1536.07 206.07C1533.99 205.6 1532.1 205.37 1530.37 205.34C1526.97 205.25 1524.72 205.67 1524.72 205.67C1524.72 205.67 1524.99 206.03 1525.54 206.6C1526.07 207.19 1526.95 207.96 1527.94 208.92C1528.45 209.39 1529.03 209.9 1529.68 210.42C1530.32 210.94 1531.08 211.46 1531.79 212.03C1532.53 212.59 1533.34 213.16 1534.22 213.71C1535.09 214.27 1536.1 214.81 1537.05 215.37C1539 216.48 1541.1 217.4 1543.12 218.2C1545.06 219.02 1546.95 219.7 1548.61 220.25C1550.27 220.8 1551.71 221.2 1552.71 221.47C1553.69 221.75 1554.27 221.87 1554.27 221.87C1554.27 221.87 1554.22 221.74 1554.13 221.49C1554.06 221.25 1553.91 220.89 1553.68 220.45Z" fill="#46B755"/>
<path d="M1526.56 164.03C1526.43 162.41 1526.13 160.64 1525.57 158.8C1525.28 157.89 1524.97 156.98 1524.57 156.17C1524.17 155.35 1523.74 154.58 1523.29 153.84C1522.39 152.38 1521.45 151.05 1520.54 150.02C1518.69 147.99 1517.21 146.84 1517.21 146.84C1517.21 146.84 1517.13 148.6 1517.37 151.21C1517.48 152.52 1517.71 153.99 1517.99 155.65C1518.28 157.3 1518.68 159.05 1519.27 160.78C1519.88 162.49 1520.53 164.13 1521.23 165.56C1521.92 167 1522.68 168.21 1523.31 169.25C1524.56 171.37 1525.6 172.59 1525.6 172.59C1525.6 172.59 1526.14 170.99 1526.43 168.45C1526.58 167.2 1526.69 165.65 1526.56 164.03Z" fill="#46B755"/>
<path d="M1558.35 217.55C1559.45 216.13 1560.64 214.35 1561.73 212.23C1562.74 210.14 1563.62 207.72 1564.22 205C1564.54 203.63 1564.64 202.31 1564.74 200.98C1564.82 199.65 1564.83 198.35 1564.78 197.08C1564.76 195.8 1564.57 194.62 1564.4 193.48C1564.22 192.34 1564.01 191.27 1563.78 190.28C1563.37 188.28 1562.75 186.72 1562.33 185.61C1561.9 184.5 1561.61 183.88 1561.61 183.88C1561.61 183.88 1560.4 186.08 1559.05 189.54C1558.4 191.25 1557.58 193.35 1556.89 195.6C1556.18 197.86 1555.61 200.29 1555.06 202.9C1554.55 205.49 1554.37 207.91 1554.15 210.18C1553.95 212.44 1554.04 214.44 1553.98 216.19C1553.97 217.93 1554.06 219.34 1554.15 220.32C1554.2 220.81 1554.24 221.2 1554.25 221.47C1554.27 221.74 1554.28 221.88 1554.28 221.88C1554.28 221.88 1554.75 221.5 1555.51 220.77C1556.26 220.05 1557.25 218.98 1558.35 217.55Z" fill="#46B755"/>
<path d="M1795.83 98.03C1796.06 99.47 1796.45 101.01 1797.06 102.53C1797.69 104.05 1798.54 105.39 1799.39 106.55C1799.82 107.13 1800.26 107.67 1800.69 108.16C1801.14 108.64 1801.59 109.08 1802.01 109.46C1803.7 111.01 1805.02 111.79 1805.02 111.79C1805.02 111.79 1805.21 110.22 1805.06 107.96C1805.02 107.39 1804.96 106.79 1804.88 106.15C1804.81 105.5 1804.72 104.82 1804.58 104.13C1804.32 102.73 1803.88 101.28 1803.28 99.82C1802.69 98.35 1801.94 97.04 1801.13 95.88C1800.93 95.59 1800.72 95.31 1800.52 95.04C1800.32 94.77 1800.13 94.5 1799.93 94.25C1799.54 93.75 1799.14 93.28 1798.77 92.87C1797.26 91.2 1796.02 90.25 1796.02 90.25C1796.02 90.25 1795.66 91.76 1795.6 94.07C1795.58 94.65 1795.59 95.28 1795.61 95.94C1795.62 96.27 1795.65 96.61 1795.68 96.96C1795.72 97.32 1795.77 97.67 1795.83 98.03Z" fill="#46B755"/>
<path d="M1790.33 110.75C1787.62 110.29 1785.74 110.25 1785.74 110.25C1785.74 110.25 1786.62 111.78 1788.35 113.76C1789.22 114.74 1790.35 115.81 1791.66 116.85C1792.32 117.37 1793.02 117.88 1793.78 118.36C1794.53 118.85 1795.37 119.28 1796.24 119.68C1797.98 120.48 1799.74 121.02 1801.4 121.38C1803.05 121.74 1804.66 121.88 1806.01 121.95C1808.72 122.07 1810.54 121.81 1810.54 121.81C1810.54 121.81 1809.59 120.53 1807.77 118.9C1806.87 118.08 1805.79 117.14 1804.48 116.23C1803.83 115.77 1803.12 115.32 1802.36 114.88C1801.6 114.45 1800.83 114.01 1799.98 113.61C1798.29 112.81 1796.55 112.21 1794.89 111.75C1793.23 111.31 1791.69 110.97 1790.33 110.75Z" fill="#46B755"/>
<path d="M1827.36 148.03C1826.09 147.24 1824.53 146.38 1822.71 145.59C1820.93 144.77 1818.91 144 1816.64 143.44C1815.5 143.16 1814.4 142.91 1813.29 142.72C1812.19 142.53 1811.09 142.39 1810.03 142.29C1807.91 142.09 1805.9 142.05 1804.21 142.05C1800.81 142.07 1798.49 142.41 1798.49 142.41C1798.49 142.41 1798.84 142.84 1799.52 143.53C1799.86 143.87 1800.27 144.29 1800.76 144.74C1801.01 144.97 1801.27 145.21 1801.55 145.45C1801.84 145.69 1802.15 145.94 1802.48 146.19C1803.79 147.2 1805.38 148.3 1807.21 149.3C1809.08 150.27 1811.19 151.14 1813.48 151.74C1814.62 152.05 1815.78 152.24 1816.91 152.37C1818.04 152.5 1819.14 152.57 1820.2 152.59C1822.32 152.62 1824.25 152.46 1825.92 152.19C1829.25 151.67 1831.4 150.89 1831.4 150.89C1831.4 150.89 1831.03 150.56 1830.34 150.04C1829.67 149.51 1828.62 148.83 1827.36 148.03Z" fill="#46B755"/>
<path d="M1814.89 113.76C1815.54 112.2 1816.13 110.51 1816.54 108.77C1816.75 107.9 1816.88 107.06 1817.01 106.24C1817.14 105.42 1817.22 104.63 1817.26 103.88C1817.36 102.38 1817.29 101.06 1817.21 99.93C1817.07 97.67 1816.66 96.28 1816.66 96.28C1816.66 96.28 1815.37 97.58 1813.83 99.77C1813.07 100.87 1812.22 102.2 1811.5 103.69C1810.78 105.18 1810.13 106.85 1809.69 108.64C1809.48 109.53 1809.3 110.42 1809.22 111.27C1809.13 112.12 1809.1 112.94 1809.1 113.73C1809.11 115.3 1809.24 116.75 1809.46 117.95C1809.92 120.34 1810.55 121.83 1810.55 121.83C1810.55 121.83 1811.65 120.3 1812.93 117.91C1813.57 116.71 1814.24 115.31 1814.89 113.76Z" fill="#46B755"/>
<path d="M1825.01 111.26C1824.82 110.03 1824.55 109.07 1824.38 108.38C1824.2 107.69 1824.07 107.32 1824.07 107.32C1824.07 107.32 1823.74 107.71 1823.22 108.42C1822.7 109.13 1821.97 110.17 1821.24 111.44C1820.5 112.72 1819.72 114.25 1819.04 115.98C1818.36 117.7 1817.76 119.63 1817.48 121.63C1817.19 123.63 1817.14 125.57 1817.29 127.32C1817.46 129.05 1817.78 130.62 1818.13 131.93C1818.47 133.25 1818.89 134.28 1819.19 135C1819.5 135.72 1819.71 136.11 1819.71 136.11C1819.71 136.11 1819.41 135.78 1818.84 135.26C1818.27 134.73 1817.41 134.02 1816.36 133.18C1815.29 132.35 1813.98 131.45 1812.43 130.58C1810.9 129.7 1809.18 128.82 1807.21 128.12C1805.23 127.42 1803.28 126.9 1801.41 126.54C1799.54 126.18 1797.77 125.97 1796.24 125.85C1794.7 125.74 1793.44 125.68 1792.54 125.68C1791.64 125.68 1791.12 125.71 1791.12 125.71C1791.12 125.71 1791.4 126.12 1791.93 126.79C1792.45 127.47 1793.3 128.36 1794.37 129.37C1795.45 130.37 1796.73 131.5 1798.31 132.52C1799.89 133.54 1801.69 134.5 1803.67 135.23C1805.67 135.95 1807.71 136.36 1809.58 136.58C1811.47 136.8 1813.19 136.84 1814.71 136.76C1817.73 136.6 1819.72 136.12 1819.72 136.12C1819.72 136.12 1820.77 134.32 1821.94 131.55C1822.51 130.17 1823.18 128.51 1823.73 126.74C1824.3 124.96 1824.75 123.06 1825.06 121.09C1825.38 119.11 1825.46 117.28 1825.41 115.64C1825.33 113.97 1825.22 112.48 1825.01 111.26Z" fill="#46B755"/>
<path d="M1834.81 140.02C1835.02 139 1835.21 137.95 1835.36 136.89C1835.51 135.82 1835.61 134.74 1835.69 133.63C1835.84 131.41 1835.73 129.39 1835.52 127.59C1835.34 125.76 1835.02 124.17 1834.68 122.85C1834.59 122.52 1834.51 122.21 1834.42 121.91C1834.34 121.61 1834.26 121.33 1834.18 121.07C1834.02 120.54 1833.87 120.1 1833.74 119.73C1833.47 119 1833.28 118.6 1833.28 118.6C1833.28 118.6 1831.96 120.45 1830.53 123.45C1829.8 124.96 1829.1 126.73 1828.52 128.7C1828.23 129.69 1827.98 130.73 1827.77 131.8C1827.57 132.87 1827.4 134 1827.36 135.12C1827.24 137.37 1827.42 139.51 1827.75 141.43C1828.13 143.33 1828.65 145.02 1829.18 146.44C1829.7 147.87 1830.29 148.95 1830.71 149.72C1831.13 150.48 1831.41 150.89 1831.41 150.89C1831.41 150.89 1832.37 148.76 1833.36 145.55C1833.84 143.95 1834.38 142.05 1834.81 140.02Z" fill="#46B755"/>
<path d="M1853.34 11.44C1853.45 12.03 1853.57 12.64 1853.71 13.26C1854.25 15.72 1855.01 18.32 1856.1 20.94C1857.13 23.58 1858.19 26.06 1859.43 28.24C1860.04 29.34 1860.66 30.37 1861.28 31.33C1861.85 32.31 1862.39 33.22 1862.92 34.04C1865.03 37.35 1866.79 39.35 1866.79 39.35C1866.79 39.35 1867.32 36.78 1867.44 32.69C1867.47 31.67 1867.48 30.55 1867.43 29.36C1867.32 28.19 1867.17 26.95 1866.97 25.65C1866.53 23.06 1865.97 20.22 1864.88 17.42C1863.73 14.65 1862.36 12.12 1860.96 9.91C1860.61 9.36 1860.26 8.83 1859.91 8.32C1859.52 7.83 1859.14 7.35 1858.76 6.9C1858 6 1857.26 5.18 1856.57 4.44C1853.77 1.52 1851.7 0 1851.7 0C1851.7 0 1851.73 2.71 1852.35 6.61C1852.51 7.59 1852.7 8.64 1852.94 9.74C1853.07 10.3 1853.2 10.86 1853.34 11.44Z" fill="#46B755"/>
<path d="M1839.93 31.28C1839.93 31.28 1840.97 33.52 1843.18 36.62C1844.24 38.19 1845.44 40.03 1847.02 41.93C1847.8 42.88 1848.66 43.85 1849.6 44.82C1850.55 45.79 1851.43 46.8 1852.47 47.78C1854.52 49.74 1856.72 51.45 1858.86 52.92C1861.01 54.4 1862.9 55.68 1864.67 56.69C1868.16 58.73 1870.7 59.76 1870.7 59.76C1870.7 59.76 1870.03 56.9 1868.4 52.95C1867.54 50.98 1866.27 48.78 1864.8 46.54C1864.06 45.42 1863.24 44.3 1862.36 43.2C1861.49 42.1 1860.38 41.07 1859.3 40.07C1857.08 38.08 1854.78 36.52 1852.59 35.3C1850.41 34.08 1848.13 33.28 1846.28 32.68C1842.51 31.5 1839.93 31.28 1839.93 31.28Z" fill="#46B755"/>
<path d="M1870.64 82.7101C1870.01 80.3901 1869.14 77.7401 1867.98 75.0101C1866.74 72.2901 1865.02 69.5101 1863.04 66.9201C1861.1 64.3301 1858.73 62.2201 1856.47 60.5101C1854.21 58.8001 1852.02 57.4901 1850.11 56.5101C1848.23 55.5201 1846.45 54.8901 1845.27 54.4701C1844.06 54.0601 1843.36 53.8901 1843.36 53.8901C1843.36 53.8901 1843.57 54.5401 1844.03 55.6601C1844.53 56.7701 1845.03 58.3801 1845.92 60.2701C1846.35 61.2201 1846.85 62.2401 1847.43 63.3201C1848 64.4001 1848.7 65.5201 1849.31 66.7101C1850.61 69.0701 1852.23 71.5701 1854.24 74.0701C1856.18 76.5701 1858.14 78.8501 1860.2 80.8601C1862.2 82.8801 1864.32 84.6301 1865.97 86.0801C1869.37 88.9801 1871.92 90.6101 1871.92 90.6101C1871.92 90.6101 1871.88 89.8001 1871.72 88.4001C1871.56 87.0001 1871.33 85.0301 1870.64 82.7101Z" fill="#46B755"/>
<path d="M1867.34 115.73C1867.12 113.06 1866.71 109.97 1865.99 106.75C1865.1 103.51 1863.84 100.13 1862.17 96.9102C1861.38 95.3102 1860.32 93.8002 1859.3 92.4202C1858.27 91.0402 1857.21 89.7702 1856.15 88.6202C1854.03 86.3202 1851.93 84.4802 1849.88 83.0502C1845.89 80.1902 1842.95 78.9302 1842.95 78.9302C1842.95 78.9302 1843.04 79.6802 1843.31 80.9702C1843.45 81.6202 1843.63 82.4002 1843.86 83.3002C1843.98 83.7502 1844.11 84.2302 1844.25 84.7302C1844.37 85.2302 1844.49 85.7602 1844.63 86.3202C1845.19 88.5302 1845.99 91.1202 1847.13 93.9302C1848.12 96.7302 1849.36 99.7502 1851.07 102.87C1851.96 104.43 1852.74 105.92 1853.6 107.35C1854.46 108.78 1855.36 110.16 1856.27 111.47C1858.08 114.09 1859.99 116.45 1861.5 118.38C1864.63 122.28 1867.09 124.63 1867.09 124.63C1867.09 124.63 1867.22 123.73 1867.33 122.17C1867.4 120.62 1867.63 118.42 1867.34 115.73Z" fill="#46B755"/>
<path d="M1837.2 107.76C1837.21 109.21 1837.46 111.33 1837.57 113.83C1837.66 115.09 1837.8 116.46 1838 117.94C1838.18 119.41 1838.54 121.01 1838.74 122.62C1838.99 124.25 1839.31 125.96 1839.73 127.74C1840.12 129.51 1840.74 131.41 1841.2 133.25C1842.23 136.98 1843.61 140.61 1845.06 143.95C1846.36 147.23 1847.77 150.25 1849.06 152.82C1850.35 155.39 1851.55 157.52 1852.4 158.99C1853.21 160.43 1853.73 161.24 1853.73 161.24C1853.73 161.24 1853.82 161 1854 160.56C1854.18 160.12 1854.41 159.46 1854.63 158.59C1855.1 156.87 1855.7 154.39 1856.2 151.42C1856.33 150.68 1856.45 149.91 1856.56 149.11C1856.66 148.31 1856.69 147.45 1856.74 146.58C1856.82 144.84 1856.84 143.01 1856.79 141.13C1856.77 137.41 1855.99 133.32 1854.82 129.38C1853.72 125.46 1851.82 121.9 1849.94 118.9C1848.02 115.89 1846.11 113.44 1844.11 111.43C1840.24 107.45 1837.21 105.47 1837.21 105.47C1837.21 105.47 1837.16 106.3 1837.2 107.76Z" fill="#46B755"/>
<path d="M1875.65 54.9901C1877.01 53.4101 1878.63 51.4001 1879.98 49.0301C1881.34 46.6601 1882.63 43.8801 1883.64 40.7201C1884.13 39.1501 1884.61 37.5401 1884.85 35.9701C1885.11 34.4001 1885.28 32.8501 1885.4 31.3301C1885.62 28.3001 1885.67 25.4201 1885.47 22.9901C1884.98 18.1301 1884.14 14.8901 1884.14 14.8901C1884.14 14.8901 1882.42 17.1701 1880.34 20.9701C1879.27 22.8801 1878.24 25.1201 1877.06 27.7001C1875.89 30.2801 1874.78 33.1301 1873.92 36.1701C1873.47 37.7001 1873.19 39.1901 1872.81 40.6701C1872.45 42.1501 1872.15 43.6001 1871.92 44.9801C1871.43 47.7601 1871.25 50.2901 1871.05 52.4801C1870.57 56.8601 1870.7 59.7501 1870.7 59.7501C1870.7 59.7501 1872.88 58.1701 1875.65 54.9901Z" fill="#46B755"/>
<path d="M1894.64 43.76C1894.64 43.76 1894.08 44.31 1893.16 45.34C1892.22 46.37 1891.03 47.87 1889.48 49.79C1887.97 51.7 1886.28 54.01 1884.62 56.62C1882.96 59.24 1881.38 62.15 1879.75 65.36C1878.17 68.56 1877.05 71.71 1876.04 74.67C1874.96 77.62 1874.18 80.37 1873.61 82.73C1873.1 85.09 1872.58 87.05 1872.3 88.44C1872.01 89.82 1871.9 90.62 1871.9 90.62C1871.9 90.62 1874.59 89.3 1878.26 86.36C1880.14 84.89 1882 83 1884 80.64C1885.94 78.29 1887.99 75.47 1889.62 72.19C1891.19 68.91 1892.35 65.47 1893.22 62.16C1893.69 60.5 1893.92 58.89 1894.15 57.35C1894.36 55.81 1894.52 54.34 1894.63 52.97C1894.83 50.24 1894.96 47.91 1894.83 46.31C1894.75 44.68 1894.64 43.76 1894.64 43.76Z" fill="#46B755"/>
<path d="M1882.41 116.3C1883.73 115.21 1885.07 113.99 1886.4 112.63C1887.73 111.27 1889.1 109.78 1890.25 108.12C1892.63 104.81 1894.64 101.23 1896.22 97.7298C1897.65 94.2198 1898.73 90.7898 1899.52 87.7998C1899.71 87.0498 1899.89 86.3298 1900.07 85.6398C1900.21 84.9498 1900.32 84.2898 1900.42 83.6698C1900.62 82.4298 1900.78 81.3398 1900.89 80.4298C1901.11 78.6198 1901.18 77.5698 1901.18 77.5698C1901.18 77.5698 1898.28 79.5998 1894.4 83.2598C1892.51 85.0898 1890.16 87.3098 1887.81 89.8798C1886.64 91.1598 1885.45 92.5298 1884.3 93.9798C1883.13 95.4298 1882.05 96.9598 1880.83 98.5698C1878.46 101.78 1876.53 105.01 1874.92 108.06C1873.14 111.08 1871.72 113.93 1870.62 116.39C1869.59 118.87 1868.54 120.89 1867.98 122.36C1867.38 123.81 1867.1 124.67 1867.1 124.67C1867.1 124.67 1870.31 123.83 1874.93 121.38C1877.28 120.15 1879.77 118.48 1882.41 116.3Z" fill="#46B755"/>
<path d="M1863.16 159.64C1865.98 158.85 1869.29 157.68 1872.86 155.93C1876.27 154.12 1879.9 151.72 1883.5 148.59C1885.36 147.04 1886.85 145.31 1888.37 143.56C1889.86 141.8 1891.25 139.99 1892.54 138.18C1893.88 136.38 1894.86 134.53 1895.86 132.75C1896.83 130.97 1897.7 129.24 1898.47 127.62C1900.08 124.39 1900.93 121.53 1901.59 119.52C1902.22 117.51 1902.52 116.32 1902.52 116.32C1902.52 116.32 1898.86 118.02 1893.75 121.34C1891.26 123.01 1888.11 125.01 1884.97 127.39C1881.79 129.77 1878.62 132.53 1875.22 135.57C1871.88 138.63 1869.14 141.84 1866.41 144.76C1865.09 146.24 1863.89 147.69 1862.79 149.08C1862.23 149.77 1861.74 150.46 1861.21 151.11C1860.68 151.76 1860.17 152.38 1859.68 152.98C1857.76 155.39 1856.3 157.46 1855.32 158.93C1854.84 159.67 1854.45 160.25 1854.16 160.64C1853.89 161.03 1853.74 161.24 1853.74 161.24C1853.74 161.24 1854.7 161.22 1856.38 161.04C1858.01 160.84 1860.33 160.42 1863.16 159.64Z" fill="#46B755"/>
<path d="M1803.37 108.36C1803.37 108.36 1803.1 108.2 1802.65 107.88C1802.19 107.56 1801.59 107.07 1800.89 106.43C1799.51 105.13 1797.7 103.23 1796.42 100.7C1796.6 101.31 1796.81 101.93 1797.06 102.55C1797.69 104.07 1798.54 105.41 1799.39 106.57C1799.82 107.15 1800.26 107.69 1800.69 108.18C1801.14 108.66 1801.59 109.1 1802.01 109.48C1803.7 111.03 1805.02 111.81 1805.02 111.81C1805.02 111.81 1805.21 110.24 1805.06 107.98C1805.02 107.41 1804.96 106.81 1804.88 106.17C1804.81 105.52 1804.72 104.84 1804.58 104.15C1804.32 102.75 1803.88 101.3 1803.28 99.8399C1803.04 99.2499 1802.78 98.6799 1802.49 98.1399C1803.21 100.79 1803.49 103.3 1803.49 105.21C1803.5 106.16 1803.45 106.97 1803.43 107.51C1803.41 108.04 1803.37 108.36 1803.37 108.36Z" fill="#3EA34C"/>
<path d="M1802.61 115.04C1804.27 116.32 1805.52 117.58 1806.37 118.52C1806.78 118.99 1807.12 119.37 1807.35 119.64C1807.57 119.91 1807.69 120.06 1807.69 120.06C1807.69 120.06 1807.23 120.12 1806.43 120.15C1805.63 120.19 1804.48 120.2 1803.14 120.1C1801.79 120 1800.23 119.8 1798.55 119.42C1796.89 119.03 1795.08 118.48 1793.39 117.61C1792.44 117.14 1791.55 116.61 1790.72 116.05C1792.25 117.36 1794.05 118.7 1796.26 119.68C1798 120.48 1799.76 121.02 1801.42 121.38C1803.07 121.74 1804.68 121.88 1806.03 121.95C1808.74 122.07 1810.56 121.81 1810.56 121.81C1810.56 121.81 1809.85 120.86 1808.49 119.55C1808.15 119.22 1807.76 118.88 1807.35 118.51C1806.94 118.14 1806.5 117.75 1806.01 117.36C1805.03 116.6 1803.9 115.8 1802.61 115.04Z" fill="#3EA34C"/>
<path d="M1809.4 129C1810.4 129.65 1811.25 130.32 1812.04 130.92C1812.82 131.52 1813.49 132.09 1814.02 132.57C1815.09 133.54 1815.65 134.21 1815.65 134.21C1815.65 134.21 1813.65 134.64 1810.63 134.7C1809.12 134.73 1807.35 134.67 1805.45 134.4C1803.58 134.12 1801.58 133.63 1799.57 132.86C1798.79 132.55 1798.02 132.22 1797.31 131.85C1799.1 133.12 1801.24 134.33 1803.64 135.22C1805.64 135.94 1807.68 136.35 1809.55 136.57C1811.44 136.79 1813.16 136.83 1814.68 136.75C1817.7 136.59 1819.69 136.11 1819.69 136.11C1819.69 136.11 1819.45 135.84 1818.98 135.4C1818.52 134.96 1817.8 134.36 1816.93 133.65C1816.06 132.94 1814.98 132.14 1813.71 131.34C1813.08 130.94 1812.38 130.55 1811.67 130.16C1810.96 129.75 1810.2 129.36 1809.4 129Z" fill="#3EA34C"/>
<path d="M1819.44 144.27C1820.66 144.88 1821.71 145.54 1822.68 146.13C1823.64 146.72 1824.47 147.28 1825.13 147.77C1826.46 148.75 1827.19 149.44 1827.19 149.44C1827.19 149.44 1825.03 150.15 1821.69 150.57C1820.02 150.78 1818.04 150.91 1815.91 150.83C1813.8 150.73 1811.52 150.41 1809.2 149.77C1808.7 149.63 1808.21 149.48 1807.72 149.32C1807.24 149.15 1806.78 148.97 1806.33 148.78C1807.34 149.39 1808.48 149.94 1809.69 150.44C1810.89 150.94 1812.17 151.38 1813.51 151.73C1814.65 152.04 1815.81 152.23 1816.94 152.36C1818.07 152.49 1819.17 152.56 1820.23 152.58C1822.35 152.61 1824.28 152.45 1825.96 152.18C1829.29 151.66 1831.44 150.88 1831.44 150.88C1831.44 150.88 1831.15 150.62 1830.59 150.19C1830.04 149.76 1829.21 149.19 1828.17 148.52C1826.11 147.16 1823.07 145.57 1819.44 144.27Z" fill="#3EA34C"/>
<path d="M1809.2 111.54C1809.28 113.57 1809.6 115.31 1809.89 116.53C1810.03 117.14 1810.19 117.61 1810.3 117.94C1810.41 118.26 1810.49 118.44 1810.49 118.44C1810.49 118.44 1810.77 118.07 1811.21 117.4C1811.65 116.73 1812.25 115.77 1812.93 114.58C1813.6 113.39 1814.33 112 1815 110.47C1815.68 108.94 1816.25 107.3 1816.73 105.55C1816.99 104.59 1817.18 103.66 1817.31 102.77C1817.29 104.53 1817.03 106.59 1816.54 108.77C1816.13 110.51 1815.54 112.2 1814.89 113.76C1814.24 115.32 1813.57 116.71 1812.92 117.91C1811.64 120.3 1810.54 121.83 1810.54 121.83C1810.54 121.83 1810.08 120.72 1809.65 118.89C1809.55 118.43 1809.44 117.93 1809.35 117.38C1809.27 116.83 1809.21 116.24 1809.16 115.62C1809.08 114.37 1809.07 112.99 1809.2 111.54Z" fill="#3EA34C"/>
<path d="M1817.24 123.94C1817.36 125.09 1817.52 126.17 1817.75 127.09C1817.98 128.02 1818.23 128.83 1818.46 129.51C1818.92 130.85 1819.3 131.62 1819.3 131.62C1819.3 131.62 1820.41 129.84 1821.66 127.1C1822.29 125.73 1822.95 124.13 1823.54 122.38C1824.16 120.62 1824.7 118.72 1825.04 116.79C1825.18 116.03 1825.26 115.3 1825.34 114.58C1825.46 116.47 1825.43 118.65 1825.04 121.06C1824.74 123.03 1824.28 124.93 1823.72 126.71C1823.17 128.48 1822.5 130.14 1821.93 131.52C1820.76 134.29 1819.71 136.09 1819.71 136.09C1819.71 136.09 1819.54 135.77 1819.27 135.18C1819.02 134.59 1818.64 133.74 1818.32 132.65C1818 131.56 1817.68 130.25 1817.46 128.78C1817.35 128.04 1817.25 127.28 1817.22 126.46C1817.19 125.66 1817.19 124.81 1817.24 123.94Z" fill="#3EA34C"/>
<path d="M1827.36 137.96C1827.62 139.25 1827.91 140.46 1828.27 141.49C1828.63 142.52 1829 143.42 1829.34 144.16C1830.01 145.64 1830.54 146.48 1830.54 146.48C1830.54 146.48 1831.56 144.37 1832.65 141.19C1833.19 139.6 1833.75 137.75 1834.22 135.75C1834.71 133.73 1835.11 131.58 1835.29 129.4C1835.33 128.93 1835.35 128.47 1835.37 128.02C1835.39 127.56 1835.41 127.11 1835.41 126.67C1835.53 127.7 1835.66 128.78 1835.72 129.93C1835.78 131.09 1835.78 132.32 1835.69 133.61C1835.61 134.73 1835.51 135.81 1835.36 136.87C1835.21 137.94 1835.02 138.99 1834.81 140C1834.38 142.03 1833.84 143.93 1833.36 145.53C1832.37 148.74 1831.41 150.87 1831.41 150.87C1831.41 150.87 1831.19 150.54 1830.84 149.93C1830.49 149.32 1830.01 148.43 1829.52 147.3C1828.6 145 1827.52 141.8 1827.36 137.96Z" fill="#3EA34C"/>
<path d="M1804.09 111C1815.04 133.69 1830.7 154.04 1849.82 170.19L1851.08 168.62C1831.97 152.91 1816.17 132.95 1805 110.54L1804.09 111Z" fill="#3EA34C"/>
<path d="M1864.99 32.6699C1864.99 32.6699 1864.64 32.2799 1864.06 31.5399C1863.51 30.7999 1862.59 29.7699 1861.6 28.4499C1860.6 27.1399 1859.48 25.5499 1858.37 23.7499C1857.32 21.9199 1856.06 19.9499 1854.94 17.7899C1855.28 18.8299 1855.66 19.8799 1856.1 20.9399C1857.13 23.5799 1858.19 26.0599 1859.43 28.2399C1860.04 29.3399 1860.66 30.3699 1861.28 31.3299C1861.85 32.3099 1862.39 33.2199 1862.92 34.0399C1865.03 37.3499 1866.79 39.3499 1866.79 39.3499C1866.79 39.3499 1867.32 36.7799 1867.44 32.6899C1867.46 31.6699 1867.48 30.5499 1867.43 29.3599C1867.32 28.1899 1867.17 26.9499 1866.97 25.6499C1866.53 23.0599 1865.97 20.2199 1864.88 17.4199C1864.42 16.2999 1863.91 15.2199 1863.39 14.1899C1864.21 16.6399 1864.8 19.0099 1865.01 21.2599C1865.27 23.4799 1865.38 25.4899 1865.4 27.1799C1865.41 28.8699 1865.39 30.2199 1865.23 31.1799C1865.09 32.1399 1864.99 32.6699 1864.99 32.6699Z" fill="#3EA34C"/>
<path d="M1862.66 43.56C1864.49 46.52 1865.81 49.33 1866.66 51.39C1867.11 52.42 1867.34 53.27 1867.51 53.86C1867.67 54.45 1867.76 54.78 1867.76 54.78C1867.76 54.78 1867.13 54.55 1866.07 54.07C1865.01 53.59 1863.52 52.88 1861.68 51.94C1859.87 51 1857.8 49.83 1855.68 48.44C1853.52 47.05 1851.48 45.39 1849.23 43.58C1848.02 42.56 1846.91 41.52 1845.9 40.48C1847.64 42.81 1850.01 45.28 1852.49 47.76C1854.54 49.72 1856.74 51.43 1858.88 52.9C1861.03 54.38 1862.92 55.66 1864.69 56.67C1868.18 58.71 1870.72 59.74 1870.72 59.74C1870.72 59.74 1870.23 57.62 1869.04 54.5C1868.74 53.72 1868.42 52.88 1868.01 52C1867.57 51.13 1867.08 50.21 1866.53 49.27C1865.44 47.42 1864.15 45.46 1862.66 43.56Z" fill="#3EA34C"/>
<path d="M1865.23 70.03C1866.04 71.83 1866.82 73.57 1867.27 75.18C1867.74 76.79 1868.09 78.25 1868.36 79.49C1868.89 81.96 1869.06 83.5 1869.06 83.5C1869.06 83.5 1866.41 82 1862.84 79.29C1861.04 77.94 1859.06 76.29 1857 74.4C1854.85 72.51 1852.66 70.37 1850.68 68C1849.89 67.07 1849.21 66.13 1848.5 65.21C1849.95 67.98 1851.79 71.02 1854.24 74.06C1856.18 76.56 1858.14 78.84 1860.2 80.85C1862.2 82.87 1864.32 84.62 1865.97 86.07C1869.37 88.97 1871.92 90.6 1871.92 90.6C1871.92 90.6 1871.89 89.94 1871.77 88.79C1871.62 87.64 1871.49 85.99 1870.99 84.03C1870.5 82.07 1869.83 79.79 1868.93 77.39C1868.47 76.19 1868.01 74.96 1867.37 73.72C1866.72 72.48 1866.01 71.25 1865.23 70.03Z" fill="#3EA34C"/>
<path d="M1864.1 101.15C1864.65 103.33 1865.16 105.45 1865.37 107.36C1865.57 109.27 1865.67 110.99 1865.71 112.44C1865.8 115.34 1865.66 117.12 1865.66 117.12C1865.66 117.12 1863.07 114.89 1859.71 111.17C1858.02 109.31 1856.18 107.09 1854.31 104.6C1852.33 102.09 1850.37 99.3198 1848.67 96.3498C1847.96 95.0498 1847.27 93.7798 1846.59 92.5298C1847.24 94.1298 1847.79 95.7998 1848.51 97.5298C1849.23 99.2598 1850.08 101.05 1851.07 102.87C1851.96 104.43 1852.74 105.92 1853.6 107.35C1854.46 108.78 1855.36 110.16 1856.27 111.47C1858.08 114.09 1859.99 116.45 1861.5 118.38C1864.63 122.28 1867.09 124.63 1867.09 124.63C1867.09 124.63 1867.19 123.92 1867.29 122.65C1867.38 121.38 1867.52 119.58 1867.46 117.38C1867.33 115.17 1867.07 112.58 1866.59 109.81C1866.33 108.42 1866.12 107.01 1865.64 105.54C1865.2 104.1 1864.69 102.62 1864.1 101.15Z" fill="#3EA34C"/>
<path d="M1856.18 135.04C1856.22 135.7 1856.26 136.35 1856.31 136.99C1856.33 137.63 1856.3 138.24 1856.28 138.85C1856.24 140.07 1856.17 141.24 1856.07 142.36C1855.89 144.6 1855.63 146.61 1855.35 148.28C1854.61 151.55 1853.93 153.53 1853.93 153.53C1853.93 153.53 1851.68 150.39 1848.99 145.48C1847.53 142.98 1845.93 140.04 1844.42 136.84C1843.66 135.24 1842.96 133.59 1842.24 131.86C1841.47 130.11 1840.74 128.32 1840.1 126.49C1839.49 124.75 1838.99 123.07 1838.57 121.44C1838.8 123.22 1839.13 125.11 1839.58 127.09C1839.8 128.08 1840.05 129.1 1840.34 130.13C1840.49 130.65 1840.64 131.17 1840.79 131.7C1840.93 132.22 1841.06 132.74 1841.2 133.26C1842.23 136.99 1843.61 140.62 1845.06 143.96C1846.36 147.24 1847.77 150.26 1849.06 152.83C1850.35 155.4 1851.55 157.53 1852.4 159C1853.21 160.44 1853.73 161.25 1853.73 161.25C1853.73 161.25 1853.8 161.07 1853.94 160.72C1854.07 160.37 1854.29 159.87 1854.46 159.18C1854.84 157.82 1855.35 155.86 1855.82 153.46C1856.06 152.26 1856.29 150.95 1856.49 149.56C1856.7 148.17 1856.72 146.63 1856.78 145.06C1856.82 143.49 1856.81 141.85 1856.74 140.18C1856.7 139.34 1856.65 138.5 1856.57 137.65C1856.5 136.8 1856.33 135.91 1856.18 135.04Z" fill="#3EA34C"/>
<path d="M1872.71 41.16C1872.23 44.88 1872.14 48.08 1872.16 50.37C1872.2 51.51 1872.16 52.44 1872.17 53.07C1872.18 53.71 1872.19 54.05 1872.19 54.05C1872.19 54.05 1872.73 53.6201 1873.61 52.7901C1874.5 51.9501 1875.73 50.71 1877 49.07C1878.29 47.43 1879.71 45.38 1881.05 42.92C1882.36 40.47 1883.75 37.5801 1884.5 34.4001C1884.96 32.6201 1885.3 30.83 1885.55 29.05C1885.37 32.73 1885.02 36.73 1883.65 40.71C1882.64 43.87 1881.35 46.64 1879.99 49.0201C1878.64 51.39 1877.01 53.4 1875.66 54.98C1872.89 58.15 1870.72 59.75 1870.72 59.75C1870.72 59.75 1870.62 57.6 1870.9 54.21C1870.98 53.36 1871.08 52.43 1871.17 51.44C1871.24 50.46 1871.33 49.4101 1871.46 48.3101C1871.72 46.1201 1872.11 43.7 1872.71 41.16Z" fill="#3EA34C"/>
<path d="M1878.09 69.08C1877.52 71.13 1877.19 73.04 1876.76 74.78C1876.34 76.52 1876.03 78.07 1875.81 79.36C1875.36 81.95 1875.24 83.54 1875.24 83.54C1875.24 83.54 1877.85 82.09 1881.33 78.95C1883.06 77.38 1885.05 75.37 1886.96 72.9C1888.78 70.44 1890.58 67.5 1892.12 64.09C1892.72 62.76 1893.29 61.4 1893.73 60.04C1892.87 63.96 1891.53 68.19 1889.63 72.17C1888 75.46 1885.95 78.27 1884.01 80.62C1882.01 82.97 1880.15 84.86 1878.27 86.34C1874.6 89.28 1871.91 90.6 1871.91 90.6C1871.91 90.6 1872 89.95 1872.23 88.8C1872.43 87.66 1872.89 86.02 1873.31 84.04C1873.74 82.06 1874.34 79.73 1875.17 77.19C1875.57 75.92 1876.08 74.6 1876.54 73.24C1877 71.89 1877.51 70.5 1878.09 69.08Z" fill="#3EA34C"/>
<path d="M1877.99 102.72C1876.92 104.9 1876.12 106.98 1875.29 108.84C1874.45 110.7 1873.77 112.38 1873.24 113.79C1872.18 116.61 1871.71 118.38 1871.71 118.38C1871.71 118.38 1874.86 117.37 1879.31 114.67C1881.53 113.32 1884.11 111.53 1886.72 109.21C1889.22 106.88 1891.79 104.01 1894.17 100.56C1894.69 99.81 1895.18 99.06 1895.66 98.29C1896.11 97.52 1896.51 96.74 1896.92 95.96C1896.2 97.99 1895.16 100.06 1894.04 102.11C1892.91 104.16 1891.66 106.19 1890.26 108.12C1889.11 109.78 1887.74 111.27 1886.41 112.63C1885.07 113.99 1883.73 115.21 1882.42 116.3C1879.78 118.48 1877.29 120.15 1874.93 121.36C1870.31 123.8 1867.1 124.65 1867.1 124.65C1867.1 124.65 1867.33 123.97 1867.8 122.79C1868.26 121.61 1869.02 119.94 1869.95 117.92C1870.81 115.88 1871.91 113.5 1873.3 110.92C1873.97 109.63 1874.81 108.31 1875.53 106.92C1876.27 105.55 1877.09 104.14 1877.99 102.72Z" fill="#3EA34C"/>
<path d="M1870.79 139.98C1870.38 140.54 1869.97 141.1 1869.57 141.64C1869.15 142.18 1868.74 142.71 1868.33 143.23C1867.53 144.27 1866.78 145.28 1866.09 146.24C1864.71 148.17 1863.56 149.92 1862.64 151.41C1860.59 154.3 1859.54 156.16 1859.54 156.16C1859.54 156.16 1863.33 155.91 1869.06 154.09C1871.81 153.13 1875.03 151.76 1878.48 149.79C1880.19 148.8 1882.01 147.68 1883.76 146.37C1885.46 145.04 1887.19 143.54 1888.89 141.86C1890.51 140.27 1892.03 138.58 1893.47 136.85C1892.08 138.88 1890.56 140.92 1888.92 142.91C1888.1 143.9 1887.24 144.88 1886.35 145.83C1885.9 146.3 1885.45 146.77 1885 147.24C1884.51 147.69 1884.01 148.14 1883.51 148.58C1879.9 151.7 1876.28 154.11 1872.87 155.92C1869.3 157.67 1865.99 158.84 1863.17 159.63C1860.35 160.42 1858.03 160.83 1856.38 161.04C1854.7 161.23 1853.74 161.24 1853.74 161.24C1853.74 161.24 1853.85 161.08 1854.06 160.77C1854.27 160.46 1854.62 160.03 1854.98 159.43C1855.74 158.26 1856.88 156.6 1858.38 154.63C1859.13 153.65 1859.97 152.58 1860.9 151.47C1861.84 150.35 1862.71 149.11 1863.75 147.87C1864.77 146.62 1865.88 145.32 1867.07 144.01C1867.67 143.35 1868.29 142.69 1868.93 142.03C1869.54 141.36 1870.16 140.67 1870.79 139.98Z" fill="#3EA34C"/>
<path d="M1865.58 37.5399C1871.28 59.4999 1872.5 82.5899 1869.63 105.08C1868.07 116.3 1865.65 127.42 1862.05 138.15C1858.37 148.84 1853.72 159.17 1848.12 168.95L1850.49 170.39C1856.09 160.38 1860.72 149.84 1864.35 138.95C1867.9 128.03 1870.23 116.74 1871.7 105.36C1874.39 82.5799 1872.91 59.2699 1866.95 37.1799L1865.58 37.5399Z" fill="#3EA34C"/>
<path d="M1513.72 162.92C1513.72 162.92 1513.42 162.89 1512.89 162.8C1512.38 162.7 1511.59 162.61 1510.68 162.42C1508.83 162.08 1506.49 161.31 1503.98 160.28C1504.48 160.62 1505.01 160.95 1505.56 161.26C1506.91 162.05 1508.24 162.74 1509.56 163.22C1510.21 163.47 1510.85 163.68 1511.47 163.86C1512.07 164.06 1512.63 164.25 1513.17 164.4C1515.3 165.01 1516.82 165.18 1516.82 165.18C1516.82 165.18 1516.23 163.8 1514.94 161.91C1514.61 161.44 1514.25 160.93 1513.83 160.41C1513.4 159.92 1512.91 159.41 1512.39 158.9C1511.33 157.9 1510.12 156.84 1508.68 155.99C1508.09 155.66 1507.5 155.37 1506.91 155.1C1509.33 156.65 1510.99 158.74 1512.12 160.24C1512.68 161.01 1513.1 161.64 1513.35 162.14C1513.6 162.63 1513.72 162.92 1513.72 162.92Z" fill="#3EA34C"/>
<path d="M1516.18 168.78C1518.07 169.33 1519.66 170.03 1520.77 170.6C1521.33 170.87 1521.74 171.15 1522.03 171.34C1522.31 171.54 1522.46 171.64 1522.46 171.64C1522.46 171.64 1522.07 171.8 1521.38 172.03C1520.69 172.26 1519.71 172.56 1518.5 172.91C1517.29 173.25 1515.88 173.59 1514.38 173.85C1512.86 174.13 1511.29 174.26 1509.61 174.38C1508.69 174.43 1507.81 174.42 1506.97 174.38C1508.58 174.7 1510.54 174.83 1512.59 174.89C1514.25 174.9 1515.9 174.75 1517.45 174.51C1519 174.27 1520.38 174.04 1521.6 173.75C1524.02 173.2 1525.63 172.6 1525.63 172.6C1525.63 172.6 1524.67 171.88 1523.02 171C1522.61 170.78 1522.16 170.55 1521.66 170.33C1521.15 170.13 1520.6 169.92 1520.02 169.73C1518.84 169.34 1517.55 169 1516.18 168.78Z" fill="#3EA34C"/>
<path d="M1526.39 179.33C1527.41 179.77 1528.39 180.21 1529.18 180.71C1529.97 181.21 1530.66 181.69 1531.22 182.11C1532.35 182.95 1532.97 183.54 1532.97 183.54C1532.97 183.54 1531.12 183.98 1528.39 184.29C1527.02 184.45 1525.46 184.56 1523.77 184.61C1522.05 184.68 1520.23 184.66 1518.44 184.47C1517.73 184.4 1517.07 184.28 1516.41 184.17C1518.07 184.76 1520.02 185.3 1522.27 185.6C1524.1 185.87 1525.87 186.03 1527.6 186.05C1529.3 186.09 1530.97 185.98 1532.31 185.91C1535.04 185.75 1536.9 185.4 1536.9 185.4C1536.9 185.4 1536.65 185.13 1536.18 184.69C1535.7 184.26 1535.04 183.62 1534.11 182.98C1533.18 182.34 1532.05 181.64 1530.76 180.98C1530.11 180.66 1529.45 180.32 1528.71 180.05C1527.97 179.77 1527.19 179.53 1526.39 179.33Z" fill="#3EA34C"/>
<path d="M1536.74 193.02C1537.81 193.71 1538.82 194.4 1539.62 195.11C1540.42 195.82 1541.1 196.5 1541.65 197.09C1542.75 198.26 1543.34 199.06 1543.34 199.06C1543.34 199.06 1541.21 199.17 1538.16 198.98C1536.63 198.89 1534.89 198.71 1533.04 198.44C1531.14 198.19 1529.16 197.83 1527.25 197.29C1526.84 197.17 1526.43 197.05 1526.04 196.92C1525.64 196.79 1525.24 196.67 1524.85 196.55C1525.73 196.96 1526.61 197.43 1527.59 197.85C1528.57 198.28 1529.64 198.68 1530.79 199.04C1531.79 199.33 1532.73 199.63 1533.69 199.88C1534.65 200.13 1535.6 200.33 1536.54 200.51C1538.41 200.87 1540.23 201.08 1541.72 201.28C1544.75 201.64 1546.87 201.63 1546.87 201.63C1546.87 201.63 1546.02 200.28 1544.36 198.48C1542.57 196.73 1540.12 194.49 1536.74 193.02Z" fill="#3EA34C"/>
<path d="M1545.29 210.21C1546.43 211.2 1547.26 212.27 1548.05 213.25C1548.82 214.24 1549.47 215.16 1549.98 215.96C1550.9 217.58 1551.34 218.65 1551.34 218.65C1551.34 218.65 1548.98 218.24 1545.7 217.3C1544 216.85 1542.06 216.28 1540.07 215.57C1539.07 215.22 1538.08 214.83 1537.06 214.41C1536.01 214 1534.97 213.56 1533.95 213.07C1532.99 212.61 1532.1 212.12 1531.27 211.63C1532.06 212.26 1532.94 212.89 1533.91 213.52C1534.4 213.83 1534.91 214.15 1535.44 214.45C1535.98 214.75 1536.53 215.06 1537.06 215.38C1539.01 216.49 1541.11 217.41 1543.13 218.21C1545.07 219.03 1546.96 219.71 1548.62 220.26C1550.28 220.81 1551.72 221.21 1552.72 221.48C1553.7 221.76 1554.28 221.88 1554.28 221.88C1554.28 221.88 1554.24 221.78 1554.17 221.58C1554.09 221.39 1554 221.1 1553.82 220.75C1553.47 220.04 1552.95 219.05 1552.24 217.88C1551.89 217.3 1551.49 216.67 1551.04 216.03C1550.6 215.38 1550.02 214.74 1549.44 214.07C1548.85 213.41 1548.21 212.74 1547.53 212.09C1546.86 211.44 1546.13 210.8 1545.29 210.21Z" fill="#3EA34C"/>
<path d="M1520.33 163.54C1521.34 165.39 1522.37 166.86 1523.15 167.87C1523.55 168.36 1523.85 168.79 1524.07 169.06C1524.29 169.33 1524.41 169.48 1524.41 169.48C1524.41 169.48 1524.53 169.07 1524.69 168.34C1524.85 167.6 1525.03 166.55 1525.11 165.29C1525.2 164.02 1525.21 162.52 1525.04 160.87C1524.86 159.23 1524.56 157.38 1523.88 155.61C1523.51 154.62 1523.08 153.66 1522.61 152.75C1523.75 154.49 1524.91 156.46 1525.58 158.8C1526.14 160.63 1526.44 162.4 1526.57 164.03C1526.7 165.65 1526.58 167.2 1526.45 168.46C1526.16 171 1525.62 172.6 1525.62 172.6C1525.62 172.6 1524.84 171.7 1523.83 170.09C1523.58 169.68 1523.32 169.24 1523.03 168.76C1522.73 168.3 1522.43 167.79 1522.12 167.25C1521.5 166.16 1520.89 164.92 1520.33 163.54Z" fill="#3EA34C"/>
<path d="M1532.48 173.61C1532.9 174.73 1533.39 175.71 1533.78 176.63C1534.18 177.55 1534.56 178.34 1534.9 178.99C1535.58 180.29 1536.07 181.02 1536.07 181.02C1536.07 181.02 1536.87 179.33 1537.51 176.55C1537.83 175.16 1538.12 173.48 1538.21 171.63C1538.27 169.81 1538.15 167.78 1537.73 165.66C1537.56 164.83 1537.38 164 1537.13 163.22C1538.06 165.3 1538.86 167.69 1539.29 170.21C1539.62 172.31 1539.59 174.36 1539.44 176.17C1539.27 178 1538.99 179.59 1538.57 180.98C1537.78 183.73 1536.89 185.39 1536.89 185.39C1536.89 185.39 1536.7 185.08 1536.41 184.5C1536.11 183.93 1535.75 183.06 1535.27 182.03C1534.8 181 1534.28 179.76 1533.81 178.33C1533.57 177.62 1533.36 176.84 1533.12 176.06C1532.9 175.28 1532.68 174.47 1532.48 173.61Z" fill="#3EA34C"/>
<path d="M1544.3 188.05C1544.55 189.4 1544.89 190.61 1545.15 191.72C1545.41 192.84 1545.68 193.81 1545.94 194.62C1546.44 196.23 1546.85 197.15 1546.85 197.15C1546.85 197.15 1548.07 195.46 1549.32 192.54C1549.94 191.08 1550.58 189.29 1551.05 187.26C1551.46 185.26 1551.72 183 1551.66 180.56C1551.65 180.03 1551.62 179.51 1551.58 178.99C1551.53 178.48 1551.46 177.98 1551.38 177.48C1551.74 178.65 1551.97 179.95 1552.15 181.28C1552.33 182.61 1552.43 183.98 1552.43 185.37C1552.45 186.54 1552.31 187.72 1552.14 188.83C1551.97 189.94 1551.74 190.99 1551.48 191.98C1550.95 193.96 1550.3 195.66 1549.57 197.11C1548.16 199.97 1546.85 201.6 1546.85 201.6C1546.85 201.6 1546.31 200.11 1545.78 197.67C1545.13 195.29 1544.62 191.86 1544.3 188.05Z" fill="#3EA34C"/>
<path d="M1554.53 206.47C1554.57 208.05 1554.51 209.58 1554.58 210.91C1554.63 212.25 1554.74 213.42 1554.85 214.39C1554.97 216.37 1555.17 217.55 1555.17 217.55C1555.17 217.55 1556.96 215.97 1559.11 212.98C1560.12 211.5 1561.2 209.67 1562.17 207.49C1562.65 206.41 1563.12 205.23 1563.49 203.98C1563.84 202.75 1564.13 201.44 1564.35 200.07C1564.55 198.76 1564.68 197.45 1564.74 196.16C1564.82 197.56 1564.83 199.02 1564.76 200.5C1564.72 201.24 1564.67 201.99 1564.59 202.74C1564.52 203.48 1564.4 204.24 1564.22 205.01C1563.63 207.73 1562.74 210.15 1561.73 212.24C1560.64 214.36 1559.45 216.13 1558.35 217.56C1557.25 218.98 1556.25 220.05 1555.51 220.78C1554.75 221.51 1554.28 221.89 1554.28 221.89C1554.28 221.89 1554.24 221.45 1554.18 220.67C1554.1 219.89 1554.01 218.77 1553.99 217.38C1553.98 216.68 1553.98 215.92 1554 215.1C1554.03 214.28 1553.99 213.42 1554.03 212.5C1554.06 211.58 1554.11 210.62 1554.2 209.61C1554.31 208.59 1554.42 207.55 1554.53 206.47Z" fill="#3EA34C"/>
<path d="M1515.62 164.86C1535.68 179.93 1550.08 202.52 1554.59 227.18L1556.35 226.85C1551.47 201.77 1536.59 179.09 1516.17 164.12L1515.62 164.86Z" fill="#3EA34C"/>
<path d="M1794.37 198.59C1765.61 182.15 1730.53 172.49 1692.66 172.49C1637.06 172.49 1587.47 193.32 1555.08 225.86C1550.93 225.29 1546.66 224.98 1542.31 224.98C1510.28 224.97 1482.92 241.16 1472 264H1612.61H1857.5H1920V153.97C1919.16 153.96 1918.33 153.95 1917.49 153.95C1870.09 153.95 1826.91 170.85 1794.37 198.59Z" fill="#46B755"/>
<path d="M1645.62 75.4399C1645.86 76.9799 1647.16 78.0399 1649.08 78.6999C1655.12 80.7499 1667.34 78.7399 1671.95 74.7999C1673.26 73.6899 1673.95 72.4299 1673.74 71.0499C1672.52 63.2899 1663.37 45.9199 1655.6 47.1299C1647.84 48.3399 1644.41 67.6699 1645.62 75.4399Z" fill="#3F8CFF"/>
<path d="M1649.08 78.6998C1655.12 80.7498 1667.34 78.7398 1671.95 74.7998C1670.72 68.2898 1663.43 54.7398 1657.24 55.7098C1650.94 56.6798 1648.14 72.2998 1649.08 78.6998Z" fill="#0C6ED6"/>
<path d="M1702.75 95.14C1701.52 95.99 1699.92 95.78 1698.21 94.88C1692.8 92.03 1686.17 82.2 1685.87 76.4C1685.78 74.76 1686.2 73.44 1687.3 72.69C1693.5 68.42 1711.61 63.37 1715.88 69.56C1720.14 75.77 1708.95 90.88 1702.75 95.14Z" fill="#3F8CFF"/>
<path d="M1698.21 94.8898C1692.8 92.0398 1686.17 82.2098 1685.87 76.4098C1691.21 72.9698 1705.43 69.1298 1708.84 74.0798C1712.3 79.0998 1703.28 91.3298 1698.21 94.8898Z" fill="#86BCFC"/>
<path d="M1734.36 196.14C1733.96 196.14 1733.55 196.13 1733.14 196.12C1729.16 196 1726.02 192.68 1726.14 188.69C1726.26 184.71 1729.59 181.55 1733.57 181.69C1740.69 181.9 1746.39 179.33 1748.45 174.99C1751.45 168.66 1747.24 157.98 1737.19 146.44C1723.26 130.43 1732.37 113.77 1739.13 107.19C1741.99 104.41 1746.56 104.48 1749.34 107.34C1752.12 110.2 1752.05 114.77 1749.19 117.55C1747.62 119.13 1739.99 127.66 1748.08 136.96C1767.44 159.21 1764.79 174.21 1761.49 181.17C1757.09 190.46 1746.76 196.14 1734.36 196.14Z" fill="#0C6ED6"/>
<path d="M1736.9 180.9C1736.18 196.08 1723.3 203.54 1707.82 206.15C1692.3 208.79 1674.17 206.53 1663.1 202.29C1654.71 199.07 1648.32 191.97 1643.54 183.2C1637.35 171.87 1633.38 157.81 1632.17 145.65C1631.67 140.69 1631.52 135.84 1631.65 131.16C1631.89 121.45 1633.29 112.46 1635.16 104.69C1638.54 90.5899 1643.45 80.4899 1645.75 77.3699C1655.72 63.9099 1667.3 62.8499 1679.54 65.8499C1686.38 67.5299 1691.26 70.1199 1694.69 73.2599C1695.09 73.6199 1695.47 73.9999 1695.83 74.3799C1699.49 78.2399 1701.16 82.7899 1701.67 87.4499C1702.6 96.0799 1699.49 105.05 1697.42 110.52C1696.85 112.02 1696.55 113.52 1696.55 114.96C1696.56 117.82 1697.81 120.38 1700.61 121.97C1700.64 121.98 1700.67 122 1700.7 122.02C1706.5 125.31 1715.09 127.53 1722.45 133.73C1731.16 141.09 1738.18 154.01 1736.9 180.9Z" fill="#3F8CFF"/>
<path d="M1707.82 206.16C1692.3 208.79 1674.17 206.54 1663.1 202.3C1654.71 199.08 1648.32 191.98 1643.54 183.21C1635.83 147.66 1646.39 125.18 1662.34 127.12C1678.69 129.11 1696.72 156 1703.14 174.49C1707.24 186.3 1708.28 198.68 1707.82 206.16Z" fill="#86BCFC"/>
<path d="M1722.43 133.75C1715 142.95 1703.92 134.78 1700.68 122.04C1706.49 125.34 1715.07 127.55 1722.43 133.75Z" fill="#0C6ED6"/>
<path d="M1697.4 110.54C1696.83 112.04 1696.53 113.54 1696.53 114.98C1686.84 114.06 1672.6 107.59 1672.34 100.19C1672.04 91.8298 1680.01 82.1598 1694.67 73.2798C1695.07 73.6398 1695.45 74.0198 1695.81 74.3998C1699.47 78.2598 1701.14 82.8098 1701.65 87.4698C1702.58 96.0998 1699.47 105.07 1697.4 110.54Z" fill="#0C6ED6"/>
<path d="M1685.6 206.75C1685.6 209.78 1679.55 211.26 1673.67 211.17C1673.28 211.17 1672.88 211.16 1672.5 211.14C1671.6 211.09 1670.69 211.01 1669.84 210.89L1668.68 210.7C1667.79 210.53 1666.95 210.32 1666.2 210.05C1665.74 209.89 1665.32 209.71 1664.94 209.52C1663.55 208.82 1662.68 207.91 1662.68 206.76C1662.68 206.49 1662.69 206.23 1662.71 205.96C1663.15 200.43 1668.09 196.07 1674.14 196.07C1680.18 196.07 1685.12 200.44 1685.56 205.96C1685.59 206.21 1685.6 206.48 1685.6 206.75Z" fill="#86BCFC"/>
<path d="M1662.69 205.56C1662.69 211.47 1685.61 211.47 1685.61 205.56C1685.61 199.65 1680.48 194.86 1674.15 194.86C1667.82 194.86 1662.69 199.65 1662.69 205.56Z" fill="#0C6ED6"/>
<path d="M1680.81 206.78L1673.59 194.28L1673.5 194.34C1674.13 193.95 1688.78 184.46 1683.33 155.43C1682.59 151.51 1685.18 147.74 1689.09 147C1693.01 146.26 1696.78 148.85 1697.51 152.76C1704.94 192.32 1681.8 206.21 1680.81 206.78Z" fill="#0C6ED6"/>
<path d="M1668.11 206.09C1668.09 206.8 1668.06 207.49 1668.01 208.19C1668 208.33 1667.99 208.47 1667.98 208.61C1667.95 208.99 1667.92 209.38 1667.89 209.77C1667.43 209.61 1667.01 209.43 1666.63 209.24C1666.61 208.87 1666.61 208.49 1666.64 208.12C1666.64 208.11 1666.64 208.09 1666.65 208.07C1666.71 207.34 1666.84 206.63 1667.06 205.93C1667.29 205.22 1667.59 204.54 1668.05 203.91C1668.13 204.66 1668.11 205.38 1668.11 206.09Z" fill="#183B59"/>
<path d="M1670.36 210.41C1670.3 210.01 1670.28 209.61 1670.28 209.22C1670.28 209.01 1670.29 208.79 1670.3 208.57C1670.36 207.83 1670.49 207.09 1670.71 206.38C1670.94 205.67 1671.24 204.99 1671.7 204.36C1671.8 205.13 1671.78 205.85 1671.78 206.57C1671.76 207.28 1671.73 207.97 1671.68 208.67C1671.67 208.93 1671.65 209.19 1671.62 209.46C1671.59 209.84 1671.56 210.24 1671.53 210.63L1670.36 210.41Z" fill="#183B59"/>
<path d="M1675.6 207.01C1675.57 207.72 1675.54 208.42 1675.5 209.11C1675.49 209.31 1675.47 209.5 1675.46 209.7C1675.43 210.09 1675.4 210.49 1675.37 210.88C1674.98 210.88 1674.58 210.87 1674.2 210.85C1674.14 210.46 1674.12 210.06 1674.12 209.66C1674.12 209.44 1674.13 209.23 1674.14 209.01C1674.2 208.27 1674.33 207.53 1674.55 206.82C1674.78 206.11 1675.08 205.43 1675.54 204.8C1675.62 205.58 1675.6 206.29 1675.6 207.01Z" fill="#183B59"/>
<path d="M1710.8 205.99C1707.82 205.99 1705.03 204.13 1703.99 201.17C1702.47 196.83 1695.31 174.6 1703.97 162.9C1706.41 159.61 1711.08 155.75 1719.48 156.1C1725.91 156.37 1731.14 159.58 1734.2 165.15C1739.21 174.28 1737.22 188.38 1732.38 196.74C1730.38 200.19 1725.97 201.37 1722.52 199.37C1719.07 197.37 1717.89 192.96 1719.89 189.51C1722.8 184.48 1723.62 175.86 1721.55 172.1C1721.02 171.13 1720.43 170.59 1718.88 170.53C1716.37 170.42 1715.81 171.17 1715.58 171.49C1712.63 175.46 1714.87 188.5 1717.62 196.39C1718.93 200.15 1716.95 204.27 1713.19 205.59C1712.39 205.86 1711.59 205.99 1710.8 205.99Z" fill="#0C6ED6"/>
<path d="M1718.54 203.27C1719.16 206.23 1713.45 208.9 1707.68 209.97C1707.35 210.03 1707.02 210.08 1706.69 210.13C1705.72 210.27 1704.77 210.37 1703.85 210.42L1702.85 210.45C1701.87 210.46 1700.94 210.4 1700.12 210.26C1699.67 210.18 1699.25 210.08 1698.86 209.95C1697.6 209.54 1696.75 208.86 1696.54 207.86C1696.48 207.6 1696.45 207.34 1696.41 207.09C1696.41 207.09 1696.41 207.09 1696.41 207.08C1695.73 201.69 1699.6 196.51 1705.39 195.3C1711.18 194.09 1716.8 197.29 1718.34 202.5C1718.34 202.51 1718.34 202.51 1718.34 202.51C1718.42 202.76 1718.48 203.01 1718.54 203.27Z" fill="#86BCFC"/>
<path d="M1718.3 202.14C1719.48 207.81 1697.5 212.4 1696.31 206.73C1695.13 201.06 1699.09 195.44 1705.16 194.17C1711.23 192.9 1717.11 196.47 1718.3 202.14Z" fill="#0C6ED6"/>
<path d="M1699.54 206.13C1699.67 206.83 1699.78 207.52 1699.87 208.2C1699.91 208.51 1699.96 208.82 1700 209.13C1700.05 209.51 1700.1 209.88 1700.14 210.25C1699.69 210.17 1699.27 210.07 1698.88 209.94C1698.75 209.56 1698.66 209.18 1698.59 208.78C1698.56 208.65 1698.54 208.51 1698.52 208.38C1698.42 207.64 1698.4 206.9 1698.48 206.16C1698.56 205.42 1698.71 204.68 1699.03 203.98C1699.27 204.72 1699.4 205.43 1699.54 206.13Z" fill="#183B59"/>
<path d="M1702.86 210.45C1702.83 210.39 1702.8 210.32 1702.77 210.26C1702.64 209.95 1702.53 209.64 1702.44 209.32C1702.33 208.92 1702.25 208.51 1702.18 208.1C1702.08 207.36 1702.06 206.62 1702.14 205.87C1702.22 205.13 1702.37 204.39 1702.69 203.69C1702.95 204.43 1703.07 205.13 1703.22 205.83C1703.35 206.53 1703.46 207.21 1703.55 207.9C1703.62 208.36 1703.68 208.82 1703.73 209.28C1703.78 209.66 1703.82 210.04 1703.86 210.42L1702.86 210.45Z" fill="#183B59"/>
<path d="M1707.05 205.5C1707.18 206.2 1707.29 206.89 1707.38 207.58C1707.44 207.99 1707.49 208.4 1707.54 208.81C1707.58 209.19 1707.63 209.58 1707.67 209.98C1707.34 210.04 1707.01 210.09 1706.68 210.14C1706.64 210.07 1706.62 210 1706.59 209.93C1706.47 209.63 1706.36 209.33 1706.28 209.02C1706.17 208.61 1706.08 208.19 1706.02 207.77C1705.92 207.03 1705.89 206.29 1705.98 205.55C1706.06 204.81 1706.21 204.07 1706.53 203.37C1706.79 204.09 1706.91 204.8 1707.05 205.5Z" fill="#183B59"/>
<path d="M1635.96 127.43C1634.74 129.02 1633.25 130.24 1631.64 131.17C1631.88 121.46 1633.28 112.47 1635.15 104.7C1639.98 112.6 1640.9 121 1635.96 127.43Z" fill="#0C6ED6"/>
<path d="M1641.88 200.46C1639.17 200.46 1636.57 198.93 1635.34 196.31C1633.64 192.7 1635.19 188.4 1638.8 186.7C1638.91 186.65 1652.33 179.93 1651.54 170.55C1651.02 164.39 1645.94 157.49 1638.61 152.98C1635.21 150.89 1634.16 146.45 1636.24 143.05C1638.33 139.65 1642.77 138.6 1646.17 140.68C1657.45 147.62 1665.02 158.6 1665.93 169.33C1667.58 188.87 1645.88 199.32 1644.95 199.75C1643.96 200.24 1642.91 200.46 1641.88 200.46Z" fill="#0C6ED6"/>
<path d="M1635.13 190.51C1630.56 194.25 1645.05 212 1649.62 208.26C1654.19 204.52 1654.66 197.52 1650.66 192.62C1646.66 187.72 1639.71 186.78 1635.13 190.51Z" fill="#86BCFC"/>
<path d="M1636.04 189.77C1631.47 193.51 1645.96 211.26 1650.53 207.52C1655.1 203.78 1655.57 196.78 1651.57 191.88C1647.58 186.97 1640.62 186.03 1636.04 189.77Z" fill="#0C6ED6"/>
<path d="M1645.82 208.17C1646.1 207.9 1646.37 207.64 1646.66 207.37C1646.77 207.26 1646.89 207.14 1647.01 207.04C1647.51 206.56 1648.04 206.09 1648.57 205.63C1649.12 205.18 1649.66 204.71 1650.32 204.3C1650.13 205.05 1649.78 205.71 1649.38 206.34C1649.01 206.92 1648.56 207.44 1648.07 207.91C1648.03 207.96 1647.99 207.99 1647.94 208.04C1647.7 208.27 1647.45 208.47 1647.19 208.67L1645.82 208.17Z" fill="#183B59"/>
<path d="M1642.7 206.06C1642.98 205.78 1643.26 205.51 1643.54 205.24C1643.8 204.99 1644.06 204.74 1644.33 204.49C1644.83 204.01 1645.35 203.55 1645.89 203.08C1646.44 202.62 1646.98 202.16 1647.64 201.75C1647.45 202.5 1647.1 203.16 1646.7 203.79C1646.3 204.41 1645.81 204.98 1645.27 205.49C1645.05 205.7 1644.82 205.89 1644.58 206.07C1644.26 206.32 1643.92 206.55 1643.56 206.75L1642.7 206.06Z" fill="#183B59"/>
<path d="M1639.95 203.37C1640.23 203.09 1640.52 202.82 1640.8 202.54C1641.05 202.29 1641.3 202.06 1641.55 201.82C1642.05 201.34 1642.57 200.88 1643.11 200.41C1643.66 199.95 1644.2 199.49 1644.87 199.07C1644.68 199.82 1644.34 200.49 1643.93 201.12C1643.52 201.75 1643.03 202.31 1642.49 202.83C1642.24 203.06 1641.96 203.28 1641.69 203.5C1641.37 203.74 1641.04 203.95 1640.68 204.15C1640.67 204.16 1640.67 204.16 1640.67 204.16L1639.95 203.37Z" fill="#183B59"/>
<path d="M1685.03 108.35C1690.62 108.35 1695.15 103.82 1695.15 98.2299C1695.15 92.6399 1690.62 88.1099 1685.03 88.1099C1679.44 88.1099 1674.91 92.6399 1674.91 98.2299C1674.91 103.82 1679.44 108.35 1685.03 108.35Z" fill="#3F8CFF"/>
<path d="M1698.38 87.68C1698.88 86.32 1696.35 84.15 1692.74 82.83C1689.13 81.51 1685.79 81.54 1685.3 82.9C1684.8 84.26 1687.33 86.43 1690.94 87.75C1694.55 89.07 1697.89 89.04 1698.38 87.68Z" fill="#86BCFC"/>
<path d="M1658.95 98.8198C1664.54 98.8198 1669.07 94.2898 1669.07 88.6998C1669.07 83.1098 1664.54 78.5798 1658.95 78.5798C1653.36 78.5798 1648.83 83.1098 1648.83 88.6998C1648.83 94.2898 1653.36 98.8198 1658.95 98.8198Z" fill="#0C6ED6"/>
<path d="M1658.75 96.5899C1663.15 96.5899 1666.72 93.0199 1666.72 88.6199C1666.72 84.2199 1663.15 80.6499 1658.75 80.6499C1654.35 80.6499 1650.78 84.2199 1650.78 88.6199C1650.78 93.0199 1654.35 96.5899 1658.75 96.5899Z" fill="#3F8CFF"/>
<path d="M1668.66 76.8101C1669.16 75.4501 1666.63 73.2801 1663.02 71.9601C1659.41 70.6401 1656.07 70.6701 1655.58 72.0301C1655.08 73.3901 1657.61 75.5601 1661.22 76.8801C1664.83 78.2001 1668.16 78.1701 1668.66 76.8101Z" fill="#86BCFC"/>
<path d="M1671.85 105.74C1672.61 103.66 1671.6 101.38 1669.59 100.65C1667.58 99.92 1665.34 101.01 1664.58 103.08C1663.82 105.16 1664.83 107.44 1666.84 108.17C1668.85 108.91 1671.09 107.82 1671.85 105.74Z" fill="#183B59"/>
<path d="M1675.14 113.38C1674.81 113.68 1674.35 113.88 1673.88 113.9C1673.4 113.93 1672.93 113.81 1672.49 113.65C1671.62 113.3 1670.86 112.76 1670.17 112.16C1669.47 111.57 1668.87 110.89 1668.29 110.21C1667.72 109.51 1667.19 108.8 1666.69 108.02L1667.41 108.27C1666.57 108.56 1665.75 108.78 1664.9 108.94C1664.05 109.08 1663.19 109.19 1662.32 109.15C1661.45 109.13 1660.57 109.01 1659.75 108.7C1658.93 108.4 1658.17 107.9 1657.67 107.21C1658.35 107.71 1659.11 108.01 1659.91 108.14C1660.7 108.28 1661.5 108.28 1662.3 108.22C1663.1 108.14 1663.9 108.02 1664.68 107.82C1665.46 107.64 1666.26 107.42 1666.99 107.14L1667.45 106.96L1667.71 107.37C1668.16 108.08 1668.66 108.8 1669.19 109.48C1669.7 110.18 1670.26 110.83 1670.84 111.46C1671.43 112.08 1672.05 112.67 1672.76 113.09C1673.44 113.54 1674.31 113.78 1675.14 113.38Z" fill="#183B59"/>
<path d="M1685.91 111.86C1685.86 111.86 1685.81 111.85 1685.77 111.82C1685.72 111.79 1680.89 109.11 1675.46 108.58C1675.3 108.56 1675.17 108.42 1675.19 108.25C1675.21 108.09 1675.35 107.97 1675.52 107.98C1681.08 108.52 1686.01 111.27 1686.06 111.3C1686.2 111.38 1686.25 111.56 1686.17 111.71C1686.11 111.8 1686.01 111.86 1685.91 111.86Z" fill="#86BCFC"/>
<path d="M1683.61 118.34C1683.52 118.34 1683.44 118.3 1683.38 118.23C1683.34 118.19 1679.81 113.94 1674.93 111.5C1674.78 111.42 1674.72 111.24 1674.8 111.1C1674.88 110.95 1675.06 110.89 1675.2 110.97C1680.19 113.48 1683.81 117.82 1683.84 117.86C1683.95 117.99 1683.93 118.17 1683.8 118.28C1683.74 118.33 1683.68 118.34 1683.61 118.34Z" fill="#86BCFC"/>
<path d="M1685.73 115.85C1685.64 115.85 1685.55 115.81 1685.5 115.74C1682.51 112.06 1675.12 110.17 1675.05 110.15C1674.89 110.11 1674.79 109.95 1674.83 109.79C1674.87 109.63 1675.03 109.53 1675.19 109.57C1675.5 109.65 1682.84 111.54 1685.96 115.36C1686.07 115.49 1686.05 115.68 1685.92 115.78C1685.86 115.82 1685.79 115.85 1685.73 115.85Z" fill="#86BCFC"/>
<path d="M1659.77 102.83C1659.71 102.83 1659.65 102.81 1659.6 102.78C1655.11 99.6798 1649.69 98.6098 1649.63 98.6098C1649.47 98.5798 1649.36 98.4198 1649.39 98.2598C1649.42 98.0998 1649.58 97.9898 1649.74 98.0198C1649.8 98.0298 1655.34 99.1098 1659.94 102.29C1660.08 102.38 1660.11 102.57 1660.02 102.71C1659.96 102.79 1659.87 102.83 1659.77 102.83Z" fill="#86BCFC"/>
<path d="M1658.18 105.36C1658.15 105.36 1658.14 105.36 1658.11 105.35C1652.81 104.07 1647.36 105.04 1647.31 105.05C1647.15 105.08 1646.99 104.97 1646.96 104.8C1646.93 104.64 1647.04 104.48 1647.2 104.45C1647.26 104.44 1652.82 103.46 1658.25 104.76C1658.41 104.8 1658.51 104.96 1658.47 105.12C1658.44 105.26 1658.31 105.36 1658.18 105.36Z" fill="#86BCFC"/>
<path d="M1659.03 104.27C1658.99 104.27 1658.94 104.26 1658.9 104.24C1658.83 104.21 1651.96 100.89 1647.31 101.77C1647.15 101.8 1646.99 101.69 1646.96 101.53C1646.93 101.37 1647.04 101.21 1647.2 101.18C1652.06 100.26 1658.88 103.56 1659.17 103.7C1659.32 103.78 1659.38 103.95 1659.31 104.1C1659.25 104.21 1659.14 104.27 1659.03 104.27Z" fill="#86BCFC"/>
<path d="M1684.78 76.35C1684.72 76.35 1684.65 76.33 1684.6 76.3C1684.44 76.2 1684.39 75.99 1684.49 75.83C1687.81 70.42 1695.13 64.47 1695.2 64.41C1695.34 64.29 1695.56 64.32 1695.68 64.46C1695.8 64.6 1695.77 64.82 1695.63 64.94C1695.55 65 1688.33 70.88 1685.07 76.19C1685.01 76.3 1684.89 76.35 1684.78 76.35Z" fill="#86BCFC"/>
<path d="M1686.21 77.51C1686.15 77.51 1686.08 77.49 1686.02 77.45C1685.86 77.34 1685.82 77.14 1685.93 76.98C1686.04 76.82 1688.61 72.99 1693.31 71.03C1693.49 70.95 1693.69 71.04 1693.76 71.21C1693.84 71.39 1693.75 71.59 1693.58 71.66C1689.08 73.54 1686.54 77.32 1686.51 77.36C1686.43 77.46 1686.32 77.51 1686.21 77.51Z" fill="#86BCFC"/>
<path d="M1672.29 72.0699C1672.26 72.0699 1672.22 72.0599 1672.19 72.0599C1672.01 71.9999 1671.91 71.8099 1671.96 71.6299C1673.81 65.6799 1673.47 56.3699 1673.46 56.2799C1673.45 56.0899 1673.6 55.9299 1673.79 55.9299C1673.98 55.9099 1674.14 56.0699 1674.15 56.2599C1674.16 56.3499 1674.5 65.7799 1672.62 71.8399C1672.56 71.9699 1672.43 72.0699 1672.29 72.0699Z" fill="#86BCFC"/>
<path d="M1670.47 71.7498C1670.44 71.7498 1670.41 71.7398 1670.38 71.7398C1670.2 71.6898 1670.09 71.4998 1670.14 71.3198C1670.15 71.2798 1671.31 66.8698 1669.77 62.2498C1669.71 62.0698 1669.81 61.8798 1669.98 61.8198C1670.16 61.7598 1670.35 61.8598 1670.41 62.0298C1672.02 66.8498 1670.84 71.3098 1670.79 71.4998C1670.76 71.6498 1670.62 71.7498 1670.47 71.7498Z" fill="#86BCFC"/>
<path d="M1663.55 93.5699C1663.29 92.0699 1663.03 90.6899 1662.52 89.4399C1661.97 88.2099 1661.2 87.1399 1660.2 86.3599C1659.21 85.5699 1657.98 85.0799 1656.69 84.9799C1655.4 84.8899 1654.04 85.1699 1652.78 86.0099C1653.48 84.6499 1655.04 83.7399 1656.66 83.5899C1658.29 83.3999 1660 83.9199 1661.3 84.9499C1662.61 85.9699 1663.5 87.4699 1663.84 89.0099C1664.18 90.5799 1664.02 92.1499 1663.55 93.5699Z" fill="#183B59"/>
<path d="M1678.25 98.07C1679 96.78 1680.07 95.61 1681.46 94.83C1682.85 94.06 1684.56 93.73 1686.19 94.03C1687.82 94.31 1689.35 95.24 1690.29 96.59C1691.26 97.9 1691.61 99.67 1691.06 101.1C1690.85 99.6 1690.16 98.4 1689.23 97.49C1688.29 96.59 1687.12 96 1685.87 95.78C1684.62 95.55 1683.32 95.69 1682.03 96.09C1680.75 96.54 1679.54 97.27 1678.25 98.07Z" fill="#183B59"/>
</g>
<defs>
<clipPath id="clip0_1_2187">
<rect width="448" height="264" fill="white" transform="translate(1472)"/>
</clipPath>
</defs>
</svg>
