<svg width="24" height="24" viewBox="0 0 24 24" fill="none" xmlns="http://www.w3.org/2000/svg">
<path d="M10.5462 5.08103L3.34671 17.1C3.19828 17.3571 3.11973 17.6485 3.1189 17.9454C3.11807 18.2422 3.19498 18.5341 3.34198 18.792C3.48897 19.0499 3.70093 19.2648 3.95676 19.4153C4.2126 19.5658 4.50339 19.6468 4.80021 19.65H19.1992C19.496 19.6468 19.7868 19.5658 20.0427 19.4153C20.2985 19.2648 20.5105 19.0499 20.6575 18.792C20.8044 18.5341 20.8814 18.2422 20.8805 17.9454C20.8797 17.6485 20.8012 17.3571 20.6527 17.1L13.4532 5.08103C13.3017 4.83122 13.0883 4.62468 12.8337 4.48134C12.5791 4.338 12.2919 4.2627 11.9997 4.2627C11.7075 4.2627 11.4203 4.338 11.1657 4.48134C10.9111 4.62468 10.6977 4.83122 10.5462 5.08103V5.08103Z" stroke="#F93232" stroke-width="2" stroke-linecap="round" stroke-linejoin="round"/>
<path d="M12 9.44995V12.85" stroke="#F93232" stroke-width="2" stroke-linecap="round" stroke-linejoin="round"/>
<path d="M12 16.25H12.0073" stroke="#F93232" stroke-width="2" stroke-linecap="round" stroke-linejoin="round"/>
</svg>
